<svg xmlns="http://www.w3.org/2000/svg" viewBox="0 0 64 64" role="img" aria-label="Publicolio favicon">
  <defs>
    <linearGradient id="bg" x1="8" y1="6" x2="56" y2="58" gradientUnits="userSpaceOnUse">
      <stop offset="0" stop-color="#111827" />
      <stop offset="1" stop-color="#1e1b4b" />
    </linearGradient>
    <linearGradient id="glow" x1="12" y1="10" x2="50" y2="50" gradientUnits="userSpaceOnUse">
      <stop offset="0" stop-color="#22d3ee" stop-opacity="0.85" />
      <stop offset="1" stop-color="#6366f1" stop-opacity="0.65" />
    </linearGradient>
    <linearGradient id="case" x1="31" y1="25" x2="53" y2="43" gradientUnits="userSpaceOnUse">
      <stop offset="0" stop-color="#3b82f6" />
      <stop offset="1" stop-color="#8b5cf6" />
    </linearGradient>
  </defs>

  <rect x="2" y="2" width="60" height="60" rx="16" fill="url(#bg)" />
  <rect x="2" y="2" width="60" height="60" rx="16" fill="url(#glow)" opacity="0.22" />

  <circle cx="20" cy="18" r="5.5" fill="#f8fafc" />
  <path d="M20 24v15" stroke="#f8fafc" stroke-width="4" stroke-linecap="round" />
  <path d="M20 31l10 1" stroke="#f8fafc" stroke-width="3.5" stroke-linecap="round" />
  <path d="M20 39l-6 11" stroke="#f8fafc" stroke-width="3.5" stroke-linecap="round" />
  <path d="M20 39l8 11" stroke="#f8fafc" stroke-width="3.5" stroke-linecap="round" />

  <rect x="31" y="25" width="21" height="17" rx="4" fill="url(#case)" stroke="#e0e7ff" stroke-opacity="0.5" />
  <path d="M38 25v-2.2c0-1.5 1.2-2.7 2.7-2.7h1.8c1.5 0 2.7 1.2 2.7 2.7V25" fill="none" stroke="#e0e7ff" stroke-width="1.8" stroke-linecap="round" />
  <path d="M36.5 31h10.5M36.5 35h7.5" stroke="#eef2ff" stroke-width="1.7" stroke-linecap="round" opacity="0.95" />

  <circle cx="49.5" cy="15" r="1.4" fill="#67e8f9" />
  <circle cx="44.5" cy="12" r="0.9" fill="#c4b5fd" />
</svg>
